<?xml version="1.0" standalone="no"?>
<!DOCTYPE svg PUBLIC "-//W3C//DTD SVG 20010904//EN"
 "http://www.w3.org/TR/2001/REC-SVG-20010904/DTD/svg10.dtd">
<svg version="1.0" xmlns="http://www.w3.org/2000/svg"
 width="500.000000pt" height="500.000000pt" viewBox="0 0 500.000000 500.000000"
 preserveAspectRatio="xMidYMid meet">

<g transform="translate(0.000000,500.000000) scale(0.100000,-0.100000)"
fill="#000000" stroke="none">
<path d="M0 2500 l0 -2500 2500 0 2500 0 0 2500 0 2500 -2500 0 -2500 0 0
-2500z m1874 1317 c49 -111 118 -260 152 -332 34 -71 72 -155 84 -185 41 -100
442 -995 450 -1003 6 -7 139 284 596 1298 40 88 98 219 131 290 l59 130 107 3
c82 2 107 0 107 -10 0 -7 16 -436 35 -953 19 -517 35 -961 35 -987 l0 -48 -99
0 -99 0 -6 118 c-4 64 -18 414 -31 777 -14 363 -26 666 -28 673 -1 8 -31 -51
-66 -130 -35 -79 -91 -201 -123 -273 -150 -329 -453 -995 -474 -1044 l-24 -54
32 7 c129 26 275 151 346 296 23 47 49 112 57 145 26 99 38 260 28 357 l-9 86
55 116 c29 64 57 116 62 116 12 0 46 -99 62 -181 67 -335 -14 -680 -208 -887
-89 -94 -171 -150 -286 -195 l-84 -32 -195 0 c-188 0 -198 1 -275 28 -231 81
-391 262 -456 512 -27 104 -37 329 -20 446 12 80 60 247 80 279 8 11 24 -14
66 -101 l56 -116 -12 -74 c-15 -94 -6 -313 15 -394 39 -145 122 -267 231 -337
55 -36 184 -84 203 -76 5 1 -66 170 -158 374 -91 204 -173 387 -180 405 -7 19
-46 99 -86 179 -39 80 -79 168 -89 195 -9 28 -46 117 -83 199 -60 134 -67 146
-74 120 -6 -25 -69 -1411 -68 -1501 l0 -33 -104 0 -104 0 4 73 c4 64 84 1885
84 1915 0 9 30 12 108 12 l107 -1 89 -202z m911 -202 c63 -16 203 -81 244
-114 l25 -19 -33 -74 c-19 -40 -37 -77 -42 -82 -4 -5 -23 4 -43 22 -94 82
-195 116 -346 116 -154 0 -274 -42 -380 -133 l-44 -38 -38 85 c-21 46 -38 86
-38 88 0 3 30 24 68 48 80 52 175 90 257 105 33 6 71 13 85 15 46 8 225 -4
285 -19z m-172 -1810 c7 -71 46 -156 83 -182 70 -49 196 -61 275 -26 51 23 97
73 106 115 3 15 10 31 14 34 5 3 40 2 79 -2 l69 -6 -6 -32 c-9 -53 -49 -131
-88 -174 -76 -84 -212 -123 -358 -102 -193 27 -302 128 -342 315 -25 121 -29
115 74 115 l88 0 6 -55z m-963 -609 c0 -6 -4 -5 -9 3 -7 11 -9 11 -14 0 -3 -8
-6 0 -6 16 0 29 0 29 14 11 8 -11 15 -25 15 -30z m130 22 c0 -16 -3 -19 -11
-11 -6 6 -8 16 -5 22 11 17 16 13 16 -11z m331 -47 l5 74 2 -89 c1 -50 -2 -86
-6 -80 -22 25 -112 155 -112 161 0 4 24 -25 53 -66 l52 -74 6 74z m174 -11
l54 0 4 43 c2 23 4 2 4 -48 0 -49 -2 -71 -4 -47 l-4 42 -54 0 -54 0 -4 -42
c-2 -24 -4 -2 -4 47 0 50 2 71 4 48 l4 -43 54 0z m385 70 c10 -6 2 -7 -25 -3
-49 7 -58 13 -19 13 16 0 36 -5 44 -10z m152 -138 c18 -22 71 -11 85 18 9 17
13 20 13 8 0 -25 -28 -48 -60 -48 -48 0 -60 22 -58 103 l2 72 3 -70 c2 -38 9
-75 15 -83z m105 81 c-2 -16 -4 -5 -4 22 0 28 2 40 4 28 2 -13 2 -35 0 -50z
m173 46 c0 -6 -4 -8 -9 -5 -7 5 -41 -61 -41 -79 0 -3 16 -5 36 -5 32 0 35 2
30 23 -3 12 3 4 13 -18 11 -22 19 -47 19 -55 0 -8 -4 -2 -10 13 -10 27 -13 29
-59 25 -27 -1 -49 -2 -49 -1 0 16 55 121 61 117 5 -3 9 -10 9 -15z m202 -55
l53 -76 6 78 5 79 2 -88 c1 -54 -2 -86 -8 -82 -5 3 -32 38 -59 77 l-50 71 -4
-79 -3 -79 -2 88 c-1 48 0 87 2 87 3 0 29 -34 58 -76z m289 59 c11 -15 11 -16
-1 -5 -33 29 -96 8 -113 -38 -4 -12 -6 -11 -6 3 -2 47 90 78 120 40z m-891
-62 c0 -41 -31 -91 -56 -91 -22 0 -13 -34 10 -38 10 -2 23 2 28 10 8 10 9 10
5 -2 -6 -24 -51 -18 -62 8 -5 12 -15 22 -22 22 -35 0 -66 84 -43 120 6 10 8 3
3 -22 -8 -53 16 -88 62 -88 45 0 69 33 63 89 -2 22 0 37 4 35 5 -3 8 -22 8
-43z m-1021 -36 c0 -5 -6 1 -14 15 -8 14 -14 30 -14 35 0 6 6 -1 14 -15 8 -14
14 -29 14 -35z m62 28 c-12 -20 -14 -14 -5 12 4 9 9 14 11 11 3 -2 0 -13 -6
-23z m-124 -65 c-2 -13 -4 -3 -4 22 0 25 2 35 4 23 2 -13 2 -33 0 -45z m170 0
c-2 -13 -4 -3 -4 22 0 25 2 35 4 23 2 -13 2 -33 0 -45z m1813 20 c0 -28 -3
-38 -9 -29 -6 9 -11 10 -15 2 -4 -6 -22 -10 -39 -10 l-32 2 30 4 c17 3 36 9
43 15 20 17 14 46 -10 51 -20 4 -19 4 5 6 25 1 27 -1 27 -41z m-106 -18 c10
-13 9 -13 -6 -1 -10 7 -18 21 -17 30 0 13 1 14 6 1 3 -8 11 -22 17 -30z
m-1784 10 c5 8 10 11 10 5 0 -5 -5 -17 -10 -25 -9 -13 -11 -13 -20 0 -5 8 -10
20 -10 25 0 6 5 3 10 -5 9 -13 11 -13 20 0z m1311 -23 c-10 -9 -11 -8 -5 6 3
10 9 15 12 12 3 -3 0 -11 -7 -18z"/>
</g>
</svg>
